<?xml version="1.0" encoding="utf-8"?>
<svg xmlns="http://www.w3.org/2000/svg" viewBox="0 0 48 48" width="64" height="64">
  <path fill="#424242" d="M9,12h30v3H9V12z M8,37h32c2.209,0,4-1.791,4-4v-8H4v8C4,35.209,5.791,37,8,37" />
  <path fill="#616161" d="M4,26h40v-7c0-2.209-1.791-4-4-4H8c-2.209,0-4,1.791-4,4V26z" />
  <path fill="#00e676" d="M39,19c0,0.552,0.448,1,1,1s1-0.448,1-1s-0.448-1-1-1S39,18.448,39,19" />
  <path fill="#242424" d="M37.5,32h-27C9.672,32,9,31.328,9,30.5S9.672,29,10.5,29h27c0.828,0,1.5,0.672,1.5,1.5S38.328,32,37.5,32" />
  <rect width="26" height="10" x="11" y="5" fill="#90caf9" />
  <rect width="2" height="2" x="11" y="30" fill="#42a5f5" />
  <rect width="2" height="2" x="15" y="30" fill="#42a5f5" />
  <rect width="2" height="2" x="19" y="30" fill="#42a5f5" />
  <rect width="2" height="2" x="23" y="30" fill="#42a5f5" />
  <rect width="2" height="2" x="27" y="30" fill="#42a5f5" />
  <rect width="2" height="2" x="31" y="30" fill="#42a5f5" />
  <rect width="2" height="2" x="35" y="30" fill="#42a5f5" />
  <rect width="2" height="7" x="11" y="32" fill="#90caf9" />
  <rect width="2" height="11" x="15" y="32" fill="#90caf9" />
  <rect width="2" height="7" x="19" y="32" fill="#90caf9" />
  <rect width="2" height="11" x="23" y="32" fill="#90caf9" />
  <rect width="2" height="7" x="27" y="32" fill="#90caf9" />
  <g>
    <rect width="2" height="7" x="35" y="32" fill="#90caf9" />
    <rect width="2" height="11" x="31" y="32" fill="#90caf9" />
  </g>
</svg>